<svg xmlns="http://www.w3.org/2000/svg" width="24" height="24" viewBox="0 0 24 24" fill="none" stroke="currentColor" stroke-width="1.75" stroke-linecap="round" stroke-linejoin="round" aria-hidden="true"><title>settings</title>
  <circle cx="12" cy="12" r="3.2"/>
  <path d="M19.4 12a7.5 7.5 0 0 0-.1-1l2-1.5-1.9-3.2-2.4 1a7.5 7.5 0 0 0-1.7-1l-.3-2.6H9l-.3 2.6a7.5 7.5 0 0 0-1.7 1l-2.4-1L2.7 9.5l2 1.5a7.5 7.5 0 0 0 0 2l-2 1.5 1.9 3.2 2.4-1a7.5 7.5 0 0 0 1.7 1l.3 2.6h4.6l.3-2.6a7.5 7.5 0 0 0 1.7-1l2.4 1 1.9-3.2-2-1.5c.1-.3.1-.7.1-1z"/>
</svg>
